Coordinates
version=1
nRows=10
nColumns=63
inDegrees=yes

Units are S.I. units (second, meters, Newtons, ...)
If the header above contains a line with 'inDegrees', this indicates whether rotational values are in degrees (yes) or radians (no).

endheader
time	pelvis_tilt	pelvis_list	pelvis_rotation	pelvis_tx	pelvis_ty	pelvis_tz	hip_flexion_r	hip_adduction_r	hip_rotation_r	knee_angle_r	knee_angle_r_beta	ankle_angle_r	subtalar_angle_r	mtp_angle_r	hip_flexion_l	hip_adduction_l	hip_rotation_l	knee_angle_l	knee_angle_l_beta	ankle_angle_l	subtalar_angle_l	mtp_angle_l	L5_S1_Flex_Ext	L5_S1_Lat_Bending	L5_S1_axial_rotation	L4_L5_Flex_Ext	L4_L5_Lat_Bending	L4_L5_axial_rotation	L3_L4_Flex_Ext	L3_L4_Lat_Bending	L3_L4_axial_rotation	L2_L3_Flex_Ext	L2_L3_Lat_Bending	L2_L3_axial_rotation	L1_L2_Flex_Ext	L1_L2_Lat_Bending	L1_L2_axial_rotation	L1_T12_Flex_Ext	L1_T12_Lat_Bending	L1_T12_axial_rotation	Abs_r3	Abs_r2	Abs_r1	Abs_t1	Abs_t2	neck_flexion	neck_bending	neck_rotation	arm_flex_r	arm_add_r	arm_rot_r	elbow_flex_r	pro_sup_r	wrist_flex_r	wrist_dev_r	arm_flex_l	arm_add_l	arm_rot_l	elbow_flex_l	pro_sup_l	wrist_flex_l	wrist_dev_l
1.016949	0.205414	-5.501997	88.146011	0.307890	0.736089	0.700798	2.974920	0.631871	4.934669	3.928782	0.068570	20.746561	3.580268	0.000000	3.039937	-4.260245	-3.646981	3.507269	0.061213	20.882397	5.431316	0.000000	0.180231	0.268363	2.026344	0.334708	0.356923	2.152990	0.296102	0.652498	2.152990	0.205986	0.652498	1.773051	0.167363	0.547246	1.646404	0.102984	0.415695	1.519758	1.287375	3.035778	11.269916	0.000000	0.000000	27.527492	-5.141162	-10.366410	12.290449	-8.247560	38.757349	41.792938	73.159272	4.633656	-2.493830	23.084315	-6.470810	61.658625	49.519728	60.470159	0.931173	2.194583
1.033898	0.275843	-5.468331	88.217942	0.307721	0.736662	0.700381	2.822417	0.685468	4.924898	3.774381	0.065875	20.430065	3.555645	0.000000	2.984933	-4.326377	-3.828981	3.491808	0.060944	20.796691	5.820199	0.000000	0.166991	0.283531	2.047927	0.310119	0.377096	2.175922	0.274350	0.689376	2.175922	0.190854	0.689376	1.791936	0.155068	0.578176	1.663941	0.095419	0.439189	1.535945	1.192800	3.207355	11.389955	0.000000	0.000000	27.515404	-6.220312	-11.504056	12.262839	-8.064262	38.897671	40.624548	74.471936	3.484664	-2.501520	23.035534	-6.617008	61.779559	49.059392	61.082686	-0.001392	0.095476
1.050847	0.343838	-5.396192	88.254850	0.307610	0.737221	0.699575	2.599248	0.743640	5.141113	3.616801	0.063125	20.060038	3.279747	0.000000	2.837015	-4.386577	-3.979379	3.447208	0.060165	20.702263	6.099780	0.000000	0.153011	0.298458	2.079466	0.284157	0.396949	2.209433	0.251382	0.725670	2.209433	0.174877	0.725670	1.819533	0.142086	0.608615	1.689566	0.087431	0.462311	1.559599	1.092944	3.376214	11.565366	0.000000	0.000000	27.515024	-7.305601	-12.664728	12.328514	-7.923308	39.645925	39.218043	76.169813	2.218833	-2.555722	22.996900	-6.786575	61.948657	48.555434	62.373005	-1.277401	-1.972110
1.067797	0.406100	-5.298163	88.275178	0.307537	0.737720	0.698425	2.326333	0.798487	5.437822	3.467940	0.060527	19.687918	2.931866	0.000000	2.619682	-4.439489	-4.106125	3.378579	0.058967	20.619882	6.320938	0.000000	0.139446	0.312193	2.123613	0.258965	0.415216	2.256339	0.229096	0.759066	2.256339	0.159373	0.759066	1.858161	0.129489	0.636624	1.725435	0.079679	0.483587	1.592710	0.996048	3.531588	11.810898	0.000000	0.000000	27.528110	-8.396554	-13.881989	12.331348	-7.803728	40.110852	37.734158	78.498216	0.890272	-2.435791	23.011740	-6.965761	62.283078	48.017965	64.025652	-2.956299	-3.904588
1.084746	0.456026	-5.179301	88.291710	0.307516	0.738138	0.697037	2.021717	0.844827	5.758593	3.341700	0.058324	19.329294	2.557344	0.000000	2.354531	-4.481196	-4.196953	3.297363	0.057550	20.559749	6.488544	0.000000	0.125611	0.323215	2.167961	0.233272	0.429875	2.303459	0.206366	0.785864	2.303459	0.143560	0.785864	1.896966	0.116642	0.659099	1.761468	0.071774	0.500659	1.625971	0.897225	3.656268	12.057550	0.000000	0.000000	27.552923	-9.421546	-15.114087	12.430989	-7.741863	41.161418	36.131307	79.834160	-0.537024	-2.360700	23.037691	-7.169792	62.593159	47.489342	65.996921	-4.872030	-5.553689
1.101695	0.480845	-5.064841	88.251208	0.307598	0.738429	0.695483	1.728992	0.874312	6.191422	3.252608	0.056769	18.977719	2.086710	0.000000	2.059828	-4.498446	-4.286009	3.184594	0.055582	20.513265	6.588217	0.000000	0.114058	0.330586	2.221863	0.211817	0.439679	2.360730	0.187386	0.803786	2.360730	0.130357	0.803786	1.944130	0.105914	0.674130	1.805264	0.065173	0.512077	1.666398	0.814705	3.739652	12.357338	0.000000	0.000000	27.589438	-10.362562	-16.311394	12.527985	-7.709546	42.330480	34.479899	80.536741	-1.923790	-2.356393	23.005350	-7.360226	62.661925	46.974194	68.338013	-6.836046	-6.749215
1.118644	0.493571	-4.956384	88.208559	0.307735	0.738586	0.693872	1.448991	0.899479	6.691157	3.188434	0.055649	18.624327	1.496258	0.000000	1.761998	-4.505989	-4.330119	3.055993	0.053337	20.493859	6.631477	0.000000	0.103561	0.335168	2.271010	0.192323	0.445773	2.412948	0.170140	0.814928	2.412948	0.118360	0.814928	1.987134	0.096167	0.683475	1.845195	0.059175	0.519175	1.703257	0.739725	3.791488	12.630675	0.000000	0.000000	27.634170	-11.170907	-17.457506	12.630726	-7.740554	43.523142	32.874320	80.331296	-3.283396	-2.317768	22.898252	-7.547966	62.422135	46.517175	70.910367	-8.795928	-7.398689
1.135593	0.485234	-4.872263	88.132728	0.307962	0.738608	0.692311	1.224224	0.906668	7.100079	3.166639	0.055268	18.328783	1.057061	0.000000	1.482085	-4.498185	-4.388925	2.904402	0.050691	20.503670	6.674579	0.000000	0.095476	0.336313	2.321247	0.177308	0.447296	2.466325	0.156857	0.817710	2.466325	0.109119	0.817710	2.031092	0.088659	0.685809	1.886014	0.054555	0.520948	1.740936	0.681975	3.804435	12.910082	0.000000	0.000000	27.684007	-11.855712	-18.534779	12.733771	-7.827661	44.754532	31.300240	79.537268	-4.483491	-2.402216	22.711050	-7.735795	61.926508	46.074289	73.656807	-10.565192	-7.644656
1.152542	0.461281	-4.820476	88.039023	0.308245	0.738503	0.690895	1.064784	0.902582	7.460692	3.168191	0.055295	18.079331	0.662566	0.000000	1.244385	-4.479594	-4.507551	2.743728	0.047887	20.547264	6.764833	0.000000	0.089769	0.334407	2.370230	0.166709	0.444762	2.518370	0.147481	0.813078	2.518370	0.102597	0.813078	2.073951	0.083359	0.681923	1.925812	0.051294	0.517997	1.777673	0.641209	3.782881	13.182510	0.000000	0.000000	27.735929	-12.448853	-19.604555	12.805452	-7.994356	45.818668	29.848227	78.368155	-5.501654	-2.446257	22.425742	-7.918842	61.139728	45.633554	76.660741	-12.121573	-7.463944
1.169492	0.450828	-4.797695	87.960074	0.308451	0.738284	0.689721	0.974148	0.905761	7.612722	3.188693	0.055653	17.919546	0.507104	0.000000	1.062877	-4.472743	-4.596554	2.590535	0.045213	20.628662	6.823504	0.000000	0.085422	0.334536	2.409911	0.158637	0.444933	2.560530	0.140339	0.813391	2.560530	0.097628	0.813391	2.108672	0.079323	0.682186	1.958052	0.048810	0.518197	1.807433	0.610159	3.784340	13.403200	0.000000	0.000000	27.787415	-12.943297	-20.588190	12.691876	-8.537858	43.615737	29.234770	79.086070	-6.819460	-1.981804	22.075158	-8.093835	60.266215	45.154679	79.423655	-13.444003	-6.946595
